<?xml version="1.0" encoding="utf-8"?>
<!-- Generator: Adobe Illustrator 23.0.3, SVG Export Plug-In . SVG Version: 6.00 Build 0)  -->
<svg version="1.1" id="Calque_1" xmlns="http://www.w3.org/2000/svg" xmlns:xlink="http://www.w3.org/1999/xlink" x="0px" y="0px"
	 viewBox="0 0 595.28 841.89" style="enable-background:new 0 0 595.28 841.89;" xml:space="preserve">
<style type="text/css">
	.st0{fill:#FFFFFF;}
</style>
<g>
	<path class="st0" d="M217.59,486.88c0-48,0-96,0-144c48,0,96,0,144,0c0,48,0,96,0,144C313.59,486.88,265.59,486.88,217.59,486.88z
		 M288.92,456.93c0.11-0.08,0.23-0.16,0.34-0.23c-3.13-7.08-7.54-13.34-12.7-19.1c-5.18-5.79-11.15-10.69-17.66-15.05
		c0.46-0.38,0.8-0.66,1.14-0.94c1.09-0.9,1.85-1.98,1.95-3.44c0.12-1.78-0.2-2.1-2-2.06c-1.13,0.03-2.26,0-3.38,0
		c-0.01-0.1-0.01-0.19-0.02-0.29c0.58-0.08,1.17-0.16,1.75-0.23c0.63-0.08,1.27-0.13,1.91-0.22c0.96-0.14,1.7-1.27,1.71-2.54
		c0.01-1.15-0.53-1.92-1.6-2.02c-1.87-0.19-3.75-0.26-5.62-0.39c-0.52-0.04-1.03-0.09-1.54-0.14c0.01-0.12,0.01-0.25,0.02-0.37
		c0.45,0,0.9-0.01,1.35,0c1.76,0.05,3.52,0.12,5.28,0.17c2.02,0.06,2.63-0.57,2.47-2.62c-0.04-0.55-0.17-1.1-0.28-1.65
		c-0.26-1.29-1.09-1.9-2.37-1.93c-1.76-0.04-3.52-0.04-5.28-0.09c-0.89-0.03-1.78-0.13-2.66-0.2c0-0.16,0-0.33,0.01-0.49
		c2.99,0,5.99,0,9.11,0c-0.13-0.94-0.12-1.56-0.31-2.11c-0.36-1.04,0.14-1.44,0.97-1.91c3.65-2.07,7.32-4.1,10.86-6.36
		c7.36-4.7,13.92-10.34,19.45-17.14c0.47-0.57,0.86-1.21,1.28-1.82c-0.34-0.02-0.45,0.16-0.58,0.3
		c-8.98,9.24-19.27,16.65-30.88,22.22c-2.11,1.01-4.21,1.43-6.57,1.25c-3.96-0.3-7.92-0.26-11.45,2.24c1.31-1.71,1.77-2,3.67-2.34
		c0.79-0.14,1.58-0.25,2.37-0.33c2.01-0.2,4.02-0.37,6.18-0.57c-0.4-0.55-0.71-0.98-1.07-1.48c9.26-2.58,17.46-6.9,24.68-13.36
		c-0.3-0.05-0.39-0.1-0.44-0.07c-0.59,0.34-1.18,0.67-1.76,1.03c-6.23,3.88-12.86,6.96-19.8,9.31c-4.19,1.42-8.46,2.65-12.72,3.84
		c-2.15,0.6-3.4,1.89-4.34,3.88c-1.49,3.17-3.2,6.25-4.93,9.3c-1,1.75-2.47,3.09-4.22,4.17c-0.75,0.46-1.4,1.34-1.71,2.17
		c-0.4,1.06-0.56,2.26-0.57,3.4c-0.03,4.13,1.58,7.79,3.59,11.28c1.41,2.45,2.39,2.68,5.05,1.78c3.55-1.21,7.14-2.3,10.7-3.48
		c0.71-0.24,1.12-0.09,1.47,0.53c0.97,1.74,2.06,3.43,2.92,5.22c2.21,4.56,4.32,9.18,6.48,13.76c0.29,0.62,0.68,1.21,1.02,1.81
		c0.1-0.55-0.01-1.01-0.18-1.44c-0.96-2.54-1.88-5.09-2.91-7.61c-1.68-4.1-3.45-8.17-5.16-12.25c-0.12-0.3-0.08-0.66-0.12-0.99
		c0.37,0.02,0.78-0.05,1.1,0.09c0.62,0.27,1.19,0.65,1.76,1.02c3.95,2.51,7.49,5.53,10.37,9.19c3.46,4.39,6.64,9,9.93,13.52
		c0.5,0.68,0.99,1.37,1.49,2.06c0.1-0.08,0.2-0.16,0.31-0.24c-4.43-11.22-12.27-19.8-21.5-27.19c0.52-1.12,1.11-1.16,1.95-0.58
		c1.57,1.09,3.28,2.01,4.79,3.18c9.68,7.49,18.16,16.13,25.24,26.13C287.78,455.32,288.35,456.12,288.92,456.93z M311.86,457.15
		c0.73-1.75,1.54-3.48,2.19-5.26c3.17-8.66,7.88-16.4,13.89-23.37c0.29-0.33,0.83-0.71,1.2-0.67c0.89,0.11,1.74,0.47,2.63,0.73
		c-0.56,5.08-0.82,10.02,0.64,14.89c0.55-4.72-0.08-9.57,1.88-14.28c2.52,0.89,5,1.75,7.47,2.64c2.51,0.9,3.63,0.67,4.84-1.71
		c1.29-2.55,2.46-5.21,3.23-7.95c0.5-1.78,0.31-3.79,0.21-5.68c-0.09-1.63-0.99-2.83-2.47-3.72c-1.13-0.68-2.22-1.64-2.97-2.71
		c-1.42-2.02-2.64-4.18-3.83-6.35c-1.02-1.85-1.82-3.82-2.85-5.67c-0.33-0.6-1.03-1.33-1.62-1.39c-2.66-0.29-4.95-1.54-7.32-2.55
		c-5.06-2.15-9.38-5.29-12.62-9.81c-0.59-0.82-1.22-1.6-1.82-2.41c2.45,5.05,6.36,8.84,10.59,12.47c-1.38-0.11-2.71-0.28-3.96-0.72
		c-9.02-3.18-17.04-8-23.92-14.68c-0.69-0.67-1.41-1.31-2.12-1.96c-0.07,0.07-0.15,0.14-0.22,0.2c0.44,0.65,0.83,1.33,1.32,1.94
		c5.62,6.93,12.61,12.08,20.66,15.82c2.48,1.15,5.12,1.68,7.89,1.77c2.59,0.08,5.16,0.54,7.74,0.82c1.44,0.16,2.29,1.11,3.25,2.36
		c-0.83-0.55-1.39-1.11-2.07-1.34c-4.39-1.53-8.89-1.32-13.39-0.7c-0.43,0.06-1.02,0.59-1.14,1.01c-0.36,1.25-0.53,2.55-0.84,4.21
		c3.2,0,6.19,0,9.19,0c0,0.16,0.01,0.31,0.01,0.47c-0.41,0.05-0.82,0.13-1.23,0.14c-2.08,0.06-4.16,0.09-6.24,0.15
		c-2.05,0.06-2.71,0.64-3.03,2.65c-0.1,0.63-0.14,1.28-0.08,1.91c0.11,1.28,0.67,1.73,1.97,1.69c1.96-0.06,3.92-0.14,5.87-0.19
		c0.42-0.01,0.85,0.07,1.27,0.1c-0.01,0.1-0.02,0.2-0.02,0.29c-0.43,0.03-0.86,0.07-1.3,0.1c-1.91,0.12-3.83,0.2-5.74,0.39
		c-1.18,0.11-1.73,0.85-1.72,2.04c0.01,1.34,0.77,2.41,1.83,2.55c1.18,0.15,2.36,0.28,3.54,0.42c0,0.11-0.01,0.21-0.01,0.32
		c-1.05,0-2.09,0.03-3.14-0.01c-2.1-0.07-2.6,0.38-2.18,2.4c0.19,0.9-0.06,1.39-0.66,1.95c-6.2,5.87-11.81,12.26-16.85,19.16
		c-4.04,5.53-7.79,11.23-10.28,17.66c-0.35,0.91-0.63,1.85-0.94,2.78c0.1,0.05,0.19,0.1,0.29,0.15c7.6-14.8,17.82-27.58,29.79-39.02
		c1.56,1.2,2.95,2.26,4.34,3.33c-6.98,8.2-13.89,16.33-20.8,24.46c0.07,0.07,0.15,0.14,0.22,0.21c0.53-0.41,1.1-0.78,1.58-1.25
		c4.21-4.16,8.45-8.29,12.57-12.53c2.65-2.72,5.11-5.62,7.67-8.43c0.35-0.39,0.7-1,1.29-0.25
		C317.11,439.51,311.65,451.42,311.86,457.15z M316.35,408.78c-0.31-0.35-0.51-0.6-0.73-0.82c-2.64-2.67-5.26-5.37-7.96-7.99
		c-0.45-0.44-1.23-0.76-1.86-0.76c-10.8-0.05-21.6-0.05-32.4,0c-0.66,0-1.48,0.37-1.96,0.83c-2.72,2.65-5.36,5.39-8.02,8.1
		c-0.19,0.19-0.34,0.42-0.54,0.68c8.9,10.25,17.77,20.46,26.72,30.78C298.58,429.25,307.43,419.06,316.35,408.78z M292.75,358.63
		c-5.91,8.86-12.33,17.19-21.72,22.72c3.1-0.01,9.4-3.64,13.08-7.53C288.22,369.47,290.91,364.29,292.75,358.63z M280.87,471.2
		c1.86-4.5,2.84-9.09,2-13.87c-0.83-4.76-3.36-8.73-6.23-12.54C279.79,453.32,281.43,462.07,280.87,471.2z M299.64,360.81
		c-0.12,0.02-0.23,0.04-0.35,0.07c0.05,6.23,0.9,12.29,4.45,17.66c2.9,4.39,6.71,7.8,11.43,10.16c-0.29-0.6-0.69-1.07-1.12-1.52
		c-1.82-1.91-3.65-3.81-5.46-5.73c-3.89-4.14-6.49-8.97-7.68-14.54C300.47,364.87,300.06,362.84,299.64,360.81z M292.92,469.08
		c1.1-4.23,2.04-8.69,3.42-13.01c1.38-4.31,3.19-8.49,4.91-12.98C296.3,447.25,291.16,463.9,292.92,469.08z"/>
	<path d="M288.92,456.93c-0.57-0.8-1.14-1.6-1.71-2.4c-7.07-10-15.56-18.65-25.24-26.13c-1.51-1.17-3.22-2.08-4.79-3.18
		c-0.84-0.58-1.42-0.54-1.95,0.58c9.23,7.39,17.07,15.98,21.5,27.19c-0.1,0.08-0.2,0.16-0.31,0.24c-0.49-0.69-0.99-1.37-1.49-2.06
		c-3.3-4.52-6.47-9.13-9.93-13.52c-2.88-3.66-6.42-6.68-10.37-9.19c-0.57-0.36-1.15-0.74-1.76-1.02c-0.32-0.14-0.73-0.07-1.1-0.09
		c0.04,0.33,0,0.7,0.12,0.99c1.71,4.09,3.47,8.16,5.16,12.25c1.03,2.51,1.95,5.07,2.91,7.61c0.16,0.44,0.27,0.89,0.18,1.44
		c-0.34-0.6-0.72-1.18-1.02-1.81c-2.16-4.59-4.27-9.2-6.48-13.76c-0.87-1.79-1.95-3.48-2.92-5.22c-0.34-0.62-0.76-0.77-1.47-0.53
		c-3.56,1.19-7.15,2.27-10.7,3.48c-2.66,0.91-3.64,0.67-5.05-1.78c-2-3.49-3.62-7.15-3.59-11.28c0.01-1.14,0.17-2.34,0.57-3.4
		c0.31-0.83,0.96-1.71,1.71-2.17c1.75-1.08,3.23-2.42,4.22-4.17c1.74-3.05,3.44-6.13,4.93-9.3c0.94-1.99,2.19-3.28,4.34-3.88
		c4.27-1.19,8.53-2.43,12.72-3.84c6.95-2.35,13.57-5.42,19.8-9.31c0.58-0.36,1.17-0.69,1.76-1.03c0.05-0.03,0.14,0.02,0.44,0.07
		c-7.22,6.46-15.41,10.79-24.68,13.36c0.37,0.51,0.68,0.94,1.07,1.48c-2.16,0.2-4.17,0.37-6.18,0.57c-0.79,0.08-1.59,0.19-2.37,0.33
		c-1.9,0.34-2.35,0.64-3.67,2.34c3.53-2.49,7.49-2.54,11.45-2.24c2.36,0.18,4.47-0.24,6.57-1.25c11.62-5.57,21.91-12.98,30.88-22.22
		c0.14-0.14,0.24-0.32,0.58-0.3c-0.43,0.61-0.81,1.24-1.28,1.82c-5.52,6.8-12.08,12.44-19.45,17.14c-3.53,2.25-7.21,4.29-10.86,6.36
		c-0.83,0.47-1.33,0.87-0.97,1.91c0.19,0.55,0.18,1.16,0.31,2.11c-3.12,0-6.12,0-9.11,0c0,0.16,0,0.33-0.01,0.49
		c0.89,0.07,1.77,0.18,2.66,0.2c1.76,0.05,3.52,0.05,5.28,0.09c1.28,0.03,2.11,0.64,2.37,1.93c0.11,0.55,0.23,1.1,0.28,1.65
		c0.16,2.05-0.45,2.69-2.47,2.62c-1.76-0.06-3.52-0.12-5.28-0.17c-0.45-0.01-0.9,0-1.35,0c-0.01,0.12-0.01,0.25-0.02,0.37
		c0.51,0.05,1.03,0.11,1.54,0.14c1.87,0.13,3.75,0.21,5.62,0.39c1.08,0.11,1.61,0.87,1.6,2.02c-0.01,1.27-0.76,2.39-1.71,2.54
		c-0.63,0.09-1.27,0.14-1.91,0.22c-0.58,0.07-1.17,0.15-1.75,0.23c0.01,0.1,0.01,0.19,0.02,0.29c1.13,0,2.26,0.02,3.38,0
		c1.8-0.04,2.12,0.28,2,2.06c-0.1,1.46-0.86,2.54-1.95,3.44c-0.34,0.28-0.67,0.56-1.14,0.94c6.51,4.35,12.48,9.25,17.66,15.05
		c5.15,5.76,9.56,12.02,12.7,19.1C289.14,456.77,289.03,456.85,288.92,456.93z"/>
	<path d="M311.86,457.15c-0.21-5.73,5.25-17.64,13.64-30.4c-0.59-0.75-0.94-0.14-1.29,0.25c-2.56,2.81-5.02,5.71-7.67,8.43
		c-4.12,4.24-8.36,8.37-12.57,12.53c-0.47,0.47-1.05,0.83-1.58,1.25c-0.07-0.07-0.15-0.14-0.22-0.21
		c6.91-8.13,13.82-16.25,20.8-24.46c-1.39-1.06-2.78-2.13-4.34-3.33c-11.97,11.45-22.19,24.22-29.79,39.02
		c-0.1-0.05-0.19-0.1-0.29-0.15c0.31-0.93,0.59-1.87,0.94-2.78c2.49-6.43,6.24-12.13,10.28-17.66c5.03-6.9,10.65-13.29,16.85-19.16
		c0.6-0.57,0.85-1.06,0.66-1.95c-0.42-2.02,0.08-2.47,2.18-2.4c1.04,0.04,2.09,0.01,3.14,0.01c0-0.11,0.01-0.21,0.01-0.32
		c-1.18-0.14-2.36-0.27-3.54-0.42c-1.06-0.14-1.82-1.22-1.83-2.55c-0.01-1.19,0.54-1.92,1.72-2.04c1.91-0.18,3.83-0.26,5.74-0.39
		c0.43-0.03,0.86-0.07,1.3-0.1c0.01-0.1,0.02-0.2,0.02-0.29c-0.42-0.04-0.85-0.12-1.27-0.1c-1.96,0.05-3.92,0.13-5.87,0.19
		c-1.3,0.04-1.86-0.41-1.97-1.69c-0.05-0.63-0.02-1.28,0.08-1.91c0.31-2.01,0.98-2.59,3.03-2.65c2.08-0.06,4.16-0.09,6.24-0.15
		c0.41-0.01,0.82-0.09,1.23-0.14c0-0.16-0.01-0.31-0.01-0.47c-2.99,0-5.99,0-9.19,0c0.31-1.66,0.48-2.96,0.84-4.21
		c0.12-0.42,0.71-0.95,1.14-1.01c4.5-0.61,9.01-0.83,13.39,0.7c0.67,0.24,1.23,0.79,2.07,1.34c-0.96-1.25-1.81-2.21-3.25-2.36
		c-2.58-0.28-5.15-0.74-7.74-0.82c-2.77-0.09-5.4-0.62-7.89-1.77c-8.05-3.74-15.04-8.9-20.66-15.82c-0.49-0.61-0.88-1.29-1.32-1.94
		c0.07-0.07,0.15-0.14,0.22-0.2c0.71,0.65,1.43,1.29,2.12,1.96c6.88,6.68,14.9,11.5,23.92,14.68c1.24,0.44,2.58,0.61,3.96,0.72
		c-4.23-3.63-8.14-7.42-10.59-12.47c0.61,0.8,1.24,1.59,1.82,2.41c3.24,4.52,7.56,7.66,12.62,9.81c2.38,1.01,4.67,2.26,7.32,2.55
		c0.6,0.07,1.29,0.79,1.62,1.39c1.03,1.85,1.83,3.82,2.85,5.67c1.19,2.16,2.42,4.33,3.83,6.35c0.76,1.08,1.84,2.03,2.97,2.71
		c1.48,0.89,2.38,2.09,2.47,3.72c0.11,1.89,0.29,3.9-0.21,5.68c-0.77,2.74-1.93,5.4-3.23,7.95c-1.21,2.38-2.34,2.61-4.84,1.71
		c-2.47-0.89-4.95-1.75-7.47-2.64c-1.96,4.71-1.33,9.56-1.88,14.28c-1.46-4.86-1.2-9.8-0.64-14.89c-0.88-0.26-1.74-0.61-2.63-0.73
		c-0.37-0.05-0.91,0.33-1.2,0.67c-6,6.97-10.72,14.7-13.89,23.37C313.39,453.67,312.59,455.4,311.86,457.15z"/>
	<path d="M292.75,358.63c-1.84,5.66-4.52,10.84-8.64,15.19c-3.68,3.9-9.98,7.53-13.08,7.53
		C280.41,375.82,286.84,367.49,292.75,358.63z"/>
	<path d="M280.87,471.2c0.56-9.14-1.08-17.88-4.23-26.42c2.87,3.82,5.4,7.79,6.23,12.54C283.71,462.12,282.73,466.71,280.87,471.2z"
		/>
	<path d="M299.64,360.81c0.42,2.03,0.83,4.06,1.27,6.09c1.19,5.57,3.79,10.4,7.68,14.54c1.81,1.92,3.64,3.82,5.46,5.73
		c0.43,0.45,0.83,0.93,1.12,1.52c-4.72-2.37-8.53-5.78-11.43-10.16c-3.55-5.37-4.4-11.43-4.45-17.66
		C299.41,360.85,299.52,360.83,299.64,360.81z"/>
	<path d="M292.92,469.08c-1.76-5.18,3.38-21.83,8.33-25.98c-1.72,4.49-3.53,8.66-4.91,12.98
		C294.96,460.39,294.01,464.85,292.92,469.08z"/>
	<path class="st0" d="M289.54,437.9c-1.1-1.25-2.18-2.47-3.24-3.7c-7.05-8.13-14.08-16.26-21.15-24.36c-0.7-0.8-0.73-1.27,0.06-2.03
		c2.3-2.22,4.49-4.56,6.78-6.79c0.4-0.39,1.09-0.71,1.64-0.71c10.64-0.04,21.27-0.04,31.91,0c0.53,0,1.19,0.24,1.56,0.61
		c2.37,2.32,4.66,4.72,7.02,7.06c0.59,0.59,0.69,0.98,0.08,1.67c-8.09,9.28-16.15,18.59-24.22,27.89
		C289.88,437.65,289.74,437.74,289.54,437.9z M312.05,408.81c-2.06-1.99-4.05-3.91-6.15-5.94c0,1.67-0.02,3.33,0.01,4.99
		c0.02,0.76-0.24,1.09-1.03,1.08c-1.84-0.02-3.68-0.02-5.52,0.02c-0.73,0.02-1.05-0.26-1.23-0.97c-0.64-2.55-2.36-4.09-4.79-4.93
		c-2.55-0.88-5.19-0.93-7.82-0.6c-1.99,0.25-3.93,0.81-5.52,2.14c-1.82,1.54-1.76,3.9,0.27,5.14c1.12,0.68,2.5,1.21,3.79,1.3
		c3.22,0.25,6.47,0.12,9.7,0.3c4.43,0.25,8.87,0.61,11.57,5.15C307.63,413.87,309.83,411.35,312.05,408.81z M279.56,422.9
		c0.76-1.6,2.02-1.96,3.39-1.92c1.75,0.05,3.53,0.46,4.7,1.79c1.14,1.3,2.38,1.55,3.91,1.32c0.31-0.05,0.65,0.03,0.96-0.04
		c2.17-0.48,4.35-0.91,6.47-1.55c0.52-0.16,1.13-1.08,1.1-1.62c-0.03-0.53-0.76-1.09-1.29-1.5c-0.35-0.28-0.88-0.41-1.35-0.45
		c-4.3-0.34-8.6-0.63-12.89-0.97c-2.7-0.21-5.41-0.47-8.1-0.74c-0.64-0.07-1.27-0.29-1.9-0.45c-0.06,0.09-0.11,0.19-0.17,0.28
		C276.06,418.93,277.74,420.83,279.56,422.9z M296.58,426.4c-0.06-0.12-0.12-0.24-0.17-0.35c-4.5,1.1-9.02,0.93-13.55,0.18
		c-0.03,0.11-0.05,0.21-0.08,0.32c2.25,2.55,4.51,5.1,6.86,7.77C292.04,431.58,294.31,428.99,296.58,426.4z M279.15,402.14
		c-2.07,0-3.79-0.02-5.5,0.03c-0.25,0.01-0.51,0.35-0.73,0.57c-1.32,1.33-2.62,2.68-3.94,4.01c-1.93,1.96-1.94,1.96-0.14,4.01
		c0.82,0.93,1.65,1.86,2.48,2.79C271.4,408.03,274.43,404.71,279.15,402.14z M300.64,405.62c1.13-0.66,1.5-1.69,1.66-2.8
		c0.03-0.21-0.26-0.67-0.42-0.68c-1.32-0.06-2.64-0.03-4.15-0.03C298.8,403.4,299.68,404.46,300.64,405.62z"/>
</g>
<g>
	<g>
		<path d="M306.58,418.03c0.2,0.29,0.4,0.56,0.58,0.84c0.12,0.18,0.22,0.38,0.32,0.57c0.64,1.21,0.93,2.5,0.88,3.87
			c-0.03,0.86-0.18,1.7-0.48,2.5c-0.19,0.49-0.39,0.98-0.68,1.41c-0.4,0.61-0.84,1.2-1.32,1.74c-0.6,0.67-1.3,1.22-2.07,1.68
			c-1.05,0.63-2.18,1.07-3.4,1.25c-1.16,0.16-2.3,0.11-3.42-0.24c-0.99-0.3-1.89-0.78-2.7-1.43c-0.51-0.41-0.98-0.87-1.4-1.37
			c-0.55-0.65-1.03-1.33-1.42-2.09c-0.21-0.41-0.43-0.82-0.62-1.25c-0.25-0.55-0.48-1.11-0.72-1.69c0.02,0.34,0.04,0.68,0.06,1.02
			c0.06,1.27,0.16,2.54-0.07,3.81c-0.09,0.5-0.28,0.96-0.64,1.33c-0.25,0.26-0.35,0.24-0.61,0.01c-0.49-0.44-0.6-1.04-0.68-1.65
			c-0.15-1.1-0.08-2.2-0.02-3.3c0.02-0.4,0.05-0.79,0.03-1.2c-0.19,0.47-0.36,0.94-0.57,1.4c-0.3,0.64-0.58,1.29-0.95,1.89
			c-0.4,0.65-0.84,1.27-1.33,1.85c-0.77,0.91-1.69,1.66-2.76,2.19c-1.72,0.84-3.52,1.02-5.38,0.58c-1.02-0.24-1.97-0.65-2.85-1.23
			c-0.74-0.48-1.41-1.03-2.01-1.69c-0.56-0.61-1.02-1.28-1.42-2.01c-0.33-0.61-0.53-1.26-0.72-1.92c-0.34-1.14-0.35-2.29-0.08-3.43
			c0.15-0.66,0.39-1.3,0.67-1.91c0.2-0.45,0.52-0.84,0.79-1.26c0.06-0.09,0.12-0.19,0.18-0.28c-0.28-0.07-0.55-0.11-0.81-0.19
			c-0.81-0.24-1.46-0.73-2.01-1.36c-0.61-0.7-1.1-1.48-1.45-2.35c-0.22-0.54-0.41-1.09-0.63-1.63c-0.4-0.99-0.57-2.03-0.75-3.07
			c-0.1-0.57-0.2-1.14-0.26-1.72c-0.04-0.33-0.3-0.48-0.46-0.71c-0.1-0.14-0.24-0.24-0.34-0.37c-0.33-0.43-0.67-0.85-0.98-1.3
			c-0.26-0.38-0.47-0.8-0.7-1.2c-0.38-0.64-0.53-1.34-0.51-2.07c0.01-0.44,0.12-0.85,0.38-1.2c0.36-0.49,0.85-0.81,1.42-1.01
			c1.05-0.36,2.12-0.38,3.21-0.28c1.46,0.14,2.87,0.51,4.25,1.01c0.94,0.34,1.84,0.75,2.74,1.19c1.07,0.53,2.08,1.14,3.07,1.79
			c0.58,0.38,1.14,0.79,1.69,1.23c0.72,0.57,1.42,1.17,2.11,1.78c0.46,0.41,0.91,0.84,1.34,1.27c0.48,0.48,0.94,0.98,1.4,1.49
			c0.45,0.51,0.89,1.03,1.31,1.57c0.49,0.63,0.96,1.28,1.43,1.93c0.24,0.33,0.46,0.67,0.69,1.01c0.03,0.04,0.06,0.08,0.12,0.15
			c0.09-0.27,0.22-0.48-0.05-0.69c-0.12-0.1-0.13-0.43-0.01-0.51c0.32-0.21,0.18-0.44,0.06-0.68c-0.12-0.25-0.24-0.49-0.37-0.73
			c-0.32-0.6-0.61-1.21-0.96-1.79c-0.43-0.72-0.89-1.42-1.38-2.1c-0.38-0.54-0.83-1.03-1.24-1.54c-0.04-0.05-0.08-0.1-0.12-0.15
			c-0.08-0.1-0.13-0.24-0.01-0.31c0.08-0.05,0.24-0.05,0.32,0c0.15,0.11,0.28,0.25,0.39,0.4c0.36,0.48,0.71,0.96,1.06,1.45
			c0.58,0.8,1.07,1.66,1.49,2.55c0.22,0.47,0.45,0.94,0.67,1.41c0.17,0.37,0.33,0.74,0.48,1.08c0.26,0.05,0.51,0.1,0.76,0.14
			c0.04,0.01,0.09-0.02,0.14-0.03c0.2-0.02,0.4-0.03,0.6-0.07c0.08-0.02,0.17-0.1,0.21-0.18c0.19-0.46,0.36-0.93,0.56-1.38
			c0.22-0.48,0.45-0.96,0.7-1.42c0.19-0.37,0.39-0.73,0.62-1.08c0.46-0.7,0.93-1.39,1.41-2.08c0.18-0.26,0.4-0.49,0.61-0.73
			c0.07-0.07,0.17-0.13,0.27-0.14c0.06-0.01,0.17,0.04,0.21,0.09c0.03,0.06,0.03,0.18-0.01,0.23c-0.1,0.14-0.24,0.25-0.35,0.39
			c-0.39,0.49-0.77,0.99-1.14,1.49c-0.55,0.73-1.05,1.5-1.47,2.32c-0.2,0.39-0.42,0.77-0.62,1.15c-0.22,0.43-0.41,0.86-0.63,1.29
			c-0.05,0.1-0.04,0.15,0.04,0.24c0.2,0.19,0.22,0.44,0.1,0.68c-0.15,0.29-0.15,0.29-0.02,0.64c0.28-0.42,0.55-0.85,0.84-1.25
			c0.53-0.72,1.08-1.44,1.63-2.15c0.35-0.45,0.71-0.9,1.1-1.32c0.53-0.58,1.08-1.14,1.64-1.7c0.36-0.37,0.73-0.73,1.11-1.07
			c0.53-0.47,1.08-0.92,1.63-1.36c0.35-0.29,0.71-0.58,1.08-0.84c0.54-0.38,1.1-0.75,1.66-1.12c0.25-0.16,0.5-0.32,0.75-0.47
			c0.91-0.54,1.82-1.06,2.81-1.45c0.76-0.3,1.5-0.64,2.26-0.9c1.5-0.51,3.05-0.84,4.65-0.84c0.86,0,1.72,0.09,2.51,0.47
			c0.54,0.26,0.98,0.62,1.26,1.2c0.28,0.58,0.31,1.17,0.15,1.75c-0.15,0.55-0.39,1.09-0.64,1.61c-0.19,0.39-0.43,0.76-0.7,1.1
			c-0.48,0.6-0.99,1.16-1.49,1.75c-0.06,0.07-0.09,0.17-0.11,0.26c-0.15,0.96-0.24,1.93-0.44,2.88c-0.19,0.88-0.46,1.75-0.74,2.61
			c-0.15,0.45-0.35,0.89-0.57,1.32c-0.39,0.78-0.84,1.52-1.44,2.15c-0.71,0.75-1.55,1.27-2.6,1.38
			C306.66,418,306.64,418.01,306.58,418.03z M291.92,416.18c0.05,0.02,0.07,0.03,0.09,0.03c1.21,0.09,2.43,0.2,3.64,0.26
			c1.63,0.09,3.26,0.17,4.89,0.2c1.91,0.04,3.82-0.02,5.71-0.36c0.67-0.12,1.3-0.36,1.8-0.85c0.54-0.52,0.49-1.25-0.12-1.57
			c-0.29-0.15-0.64-0.24-0.97-0.26c-0.53-0.04-1.07-0.01-1.6,0c-1.71,0.04-3.42-0.03-5.08-0.48c-0.99-0.27-1.92-0.14-2.85,0.21
			c-1,0.38-1.92,0.93-2.85,1.45c-0.63,0.35-1.27,0.69-1.91,1.02C292.43,415.95,292.19,416.06,291.92,416.18z M286.38,416.21
			c0-0.02,0.01-0.03,0.01-0.05c-0.07-0.03-0.14-0.07-0.2-0.1c-0.61-0.3-1.23-0.59-1.83-0.91c-0.7-0.37-1.39-0.77-2.08-1.16
			c-0.68-0.38-1.4-0.69-2.16-0.88c-0.62-0.15-1.23-0.14-1.86-0.01c-0.79,0.16-1.58,0.33-2.38,0.43c-1.29,0.16-2.58,0.11-3.88,0.07
			c-0.62-0.02-1.24,0.02-1.76,0.44c-0.38,0.3-0.43,0.85-0.11,1.22c0.32,0.36,0.7,0.63,1.14,0.81c0.63,0.26,1.31,0.35,1.97,0.41
			c1.32,0.11,2.65,0.18,3.98,0.2c2.7,0.03,5.38-0.18,8.07-0.38C285.66,416.27,286.02,416.24,286.38,416.21z M299.94,428.99
			c-0.05-0.19-0.12-0.57-0.27-0.9c-0.25-0.54-0.55-1.06-0.83-1.59c-0.23-0.42-0.47-0.84-0.7-1.25c-0.16-0.29-0.32-0.59-0.51-0.86
			c-0.26-0.36-0.55-0.7-0.82-1.06c-0.42-0.54-0.89-1.03-1.41-1.48c-0.63-0.56-1.3-1.07-2.04-1.48c-0.49-0.28-0.99-0.55-1.49-0.82
			c-0.06-0.03-0.14-0.01-0.21-0.02c0.01,0.07-0.01,0.15,0.02,0.2c0.17,0.26,0.34,0.52,0.52,0.76c0.44,0.57,0.9,1.11,1.34,1.68
			c0.49,0.64,0.97,1.3,1.44,1.95c0.44,0.61,0.87,1.23,1.29,1.86c0.48,0.72,0.97,1.44,1.42,2.17c0.3,0.48,0.62,0.94,1.06,1.31
			c0.16,0.13,0.35,0.24,0.54,0.31C299.69,429.94,299.95,429.68,299.94,428.99z M278.38,429.16c0.02,0.01,0.04,0.01,0.06,0.02
			c0,0.04,0,0.07,0,0.11c0.02,0.46,0.32,0.67,0.73,0.45c0.26-0.14,0.54-0.31,0.72-0.54c0.49-0.62,0.93-1.27,1.37-1.92
			c0.44-0.64,0.86-1.3,1.31-1.94c0.45-0.65,0.91-1.3,1.38-1.94c0.45-0.61,0.92-1.21,1.38-1.81c0.36-0.47,0.74-0.93,1.09-1.4
			c0.12-0.15,0.21-0.33,0.3-0.5c0.02-0.04,0.02-0.12,0-0.15c-0.03-0.03-0.1-0.03-0.15-0.02c-0.07,0.01-0.13,0.05-0.19,0.08
			c-0.34,0.19-0.69,0.38-1.03,0.57c-0.82,0.44-1.57,0.98-2.27,1.6c-0.47,0.42-0.93,0.86-1.33,1.35c-0.5,0.61-0.94,1.26-1.39,1.91
			c-0.26,0.38-0.47,0.78-0.69,1.18c-0.3,0.56-0.61,1.13-0.88,1.71C278.61,428.32,278.51,428.75,278.38,429.16z M286.38,418.23
			c-0.02,0-0.05-0.01-0.08-0.01c-1.06,0.03-2.12,0.03-3.18,0.11c-0.51,0.04-1.03,0.15-1.51,0.33c-0.67,0.25-1.16,0.76-1.52,1.38
			c-0.03,0.06-0.09,0.11-0.15,0.13c-0.29,0.11-0.59,0.21-0.89,0.33c-0.54,0.21-1.06,0.47-1.44,0.92c-0.34,0.4-0.49,0.89-0.56,1.4
			c-0.02,0.12,0.03,0.31,0.11,0.36c0.09,0.05,0.27,0.01,0.39-0.04c0.49-0.2,0.96-0.45,1.45-0.63c0.87-0.32,1.76-0.56,2.68-0.72
			c0.1-0.02,0.19-0.07,0.27-0.14c0.33-0.28,0.64-0.6,0.99-0.86c0.64-0.48,1.29-0.94,1.96-1.38c0.35-0.23,0.75-0.41,1.13-0.6
			C286.25,418.69,286.42,418.53,286.38,418.23z M291.9,418.23c0.08,0.16,0.11,0.34,0.21,0.41c0.41,0.26,0.85,0.49,1.28,0.73
			c0.8,0.44,1.52,1,2.23,1.57c0.3,0.24,0.58,0.51,0.87,0.77c0.04,0.04,0.11,0.07,0.17,0.08c0.76,0.13,1.5,0.29,2.22,0.58
			c0.64,0.25,1.27,0.52,1.91,0.77c0.13,0.05,0.35,0.11,0.42,0.04c0.1-0.08,0.13-0.29,0.11-0.44c-0.08-0.58-0.35-1.08-0.76-1.5
			c-0.06-0.06-0.12-0.12-0.19-0.17c-0.46-0.31-0.95-0.53-1.48-0.7c-0.36-0.12-0.68-0.28-0.88-0.65c-0.24-0.43-0.63-0.73-1.05-0.95
			c-0.57-0.3-1.19-0.41-1.83-0.44c-1-0.04-2.01-0.06-3.01-0.09C292.07,418.22,292.01,418.23,291.9,418.23z M291.56,415.81
			c0.06-0.03,0.11-0.04,0.15-0.06c0.4-0.21,0.79-0.42,1.19-0.63c0.89-0.47,1.78-0.93,2.66-1.41c0.94-0.52,1.88-1.04,2.78-1.63
			c0.87-0.57,1.7-1.23,2.53-1.85c0.25-0.19,0.47-0.43,0.72-0.62c0.34-0.25,0.58-0.59,0.77-0.96c0.04-0.08,0-0.23-0.05-0.32
			c-0.12-0.22-0.34-0.27-0.58-0.29c-0.55-0.05-1.06,0.09-1.56,0.28c-0.5,0.19-0.95,0.49-1.32,0.88c-0.47,0.48-0.9,1.01-1.39,1.47
			c-0.67,0.62-1.37,1.21-2.09,1.77c-0.74,0.58-1.52,1.11-2.29,1.65c-0.49,0.35-1,0.68-1.5,1.02c-0.05,0.04-0.12,0.12-0.12,0.17
			C291.48,415.45,291.52,415.62,291.56,415.81z M286.81,415.83c0.03-0.16,0.05-0.3,0.09-0.42c0.06-0.17,0-0.26-0.14-0.35
			c-0.53-0.34-1.06-0.68-1.58-1.04c-0.72-0.5-1.43-1.02-2.14-1.54c-0.39-0.29-0.76-0.6-1.13-0.92c-0.57-0.5-1.12-1.02-1.67-1.55
			c-0.44-0.43-0.77-0.97-1.3-1.31c-0.68-0.43-1.41-0.71-2.22-0.68c-0.27,0.01-0.56,0.02-0.69,0.32c-0.12,0.29,0.06,0.52,0.21,0.74
			c0.01,0.02,0.02,0.04,0.04,0.05c0.28,0.26,0.56,0.53,0.85,0.78c0.56,0.47,1.12,0.94,1.72,1.36c0.76,0.53,1.55,1.02,2.34,1.49
			c0.79,0.47,1.6,0.91,2.4,1.36c0.65,0.35,1.3,0.69,1.95,1.04C285.97,415.38,286.37,415.6,286.81,415.83z M299.17,412.22
			c0.16,0.04,0.26,0.08,0.37,0.09c0.77,0.07,1.54,0.13,2.31,0.21c1.41,0.15,2.82,0.2,4.23,0.03c0.59-0.07,1.19-0.09,1.73-0.41
			c0.27-0.16,0.47-0.42,0.45-0.69c-0.02-0.31-0.22-0.48-0.5-0.53c-0.32-0.06-0.65-0.11-0.98-0.12c-0.82-0.01-1.63,0.04-2.45,0.01
			c-0.74-0.02-1.49-0.09-2.22-0.19c-0.35-0.05-0.64-0.02-0.93,0.18c-0.56,0.39-1.12,0.77-1.69,1.15
			C299.4,412.03,299.31,412.11,299.17,412.22z M279.17,412.23c-0.03-0.05-0.03-0.07-0.04-0.08c-0.65-0.45-1.29-0.9-1.94-1.34
			c-0.25-0.17-0.51-0.29-0.83-0.21c-0.96,0.25-1.94,0.21-2.91,0.22c-0.77,0-1.53-0.02-2.3-0.02c-0.36,0-0.71,0.09-0.96,0.4
			c-0.11,0.14-0.16,0.39-0.05,0.53c0.21,0.25,0.43,0.47,0.76,0.57c0.78,0.24,1.59,0.28,2.39,0.33c1.82,0.11,3.62-0.17,5.42-0.31
			C278.87,412.31,279.01,412.27,279.17,412.23z M280.84,422.86c-0.14,0.01-0.25,0-0.34,0.04c-0.4,0.13-0.8,0.26-1.19,0.42
			c-0.55,0.24-1.1,0.5-1.5,0.99c-0.3,0.38-0.61,0.76-0.89,1.15c-0.41,0.56-0.8,1.14-1.21,1.7c-0.32,0.44-0.39,0.92-0.35,1.45
			c0.06,0.67,0.83,1.16,1.49,0.8c0.46-0.25,0.72-0.65,0.94-1.07c0.27-0.53,0.45-1.11,0.7-1.65c0.2-0.44,0.44-0.86,0.68-1.28
			c0.24-0.42,0.51-0.83,0.78-1.23c0.16-0.23,0.36-0.43,0.53-0.65C280.63,423.34,280.81,423.17,280.84,422.86z M302,429.57
			c0.5-0.04,0.89-0.39,0.97-0.91c0.12-0.75-0.18-1.38-0.6-1.96c-0.28-0.38-0.58-0.75-0.87-1.14c-0.31-0.42-0.62-0.84-0.93-1.26
			c-0.06-0.08-0.13-0.15-0.21-0.21c-0.61-0.48-1.29-0.81-2.02-1.07c-0.21-0.07-0.43-0.13-0.65-0.18c-0.05-0.01-0.12,0.04-0.18,0.07
			c0.02,0.05,0.04,0.11,0.07,0.16c0.27,0.37,0.55,0.72,0.82,1.09c0.2,0.28,0.41,0.56,0.58,0.85c0.28,0.48,0.56,0.96,0.8,1.47
			c0.28,0.59,0.52,1.2,0.76,1.81c0.18,0.44,0.45,0.8,0.85,1.04C301.59,429.46,301.8,429.5,302,429.57z M287.01,420.08
			c-0.19,0.34-0.36,0.64-0.53,0.93c-0.21,0.38-0.42,0.77-0.65,1.14c-0.46,0.73-0.91,1.46-1.4,2.16c-0.42,0.6-0.88,1.19-1.35,1.75
			c-0.56,0.68-1.15,1.33-1.72,2c-0.19,0.23-0.4,0.46-0.55,0.71c-0.18,0.3-0.06,0.68,0.23,0.8c0.6,0.26,1.3,0.07,1.67-0.39
			c0.44-0.55,0.83-1.13,1.22-1.71c0.47-0.71,0.95-1.42,1.36-2.16c0.49-0.9,0.94-1.83,1.36-2.77c0.17-0.38,0.26-0.81,0.35-1.22
			C287.1,420.93,287.11,420.52,287.01,420.08z M291.34,420.07c-0.03,0.08-0.05,0.11-0.05,0.14c-0.01,0.04-0.01,0.08-0.02,0.13
			c-0.03,0.46-0.01,0.91,0.16,1.35c0.19,0.48,0.3,0.99,0.51,1.46c0.26,0.6,0.58,1.17,0.9,1.74c0.21,0.4,0.45,0.78,0.69,1.16
			c0.48,0.75,0.97,1.5,1.47,2.24c0.21,0.32,0.43,0.63,0.66,0.92c0.32,0.41,1.04,0.6,1.52,0.41c0.35-0.14,0.54-0.45,0.41-0.72
			c-0.11-0.23-0.25-0.44-0.42-0.63c-0.45-0.52-0.93-1.02-1.38-1.54c-0.31-0.36-0.62-0.73-0.9-1.11c-0.53-0.69-1.05-1.39-1.55-2.1
			c-0.23-0.33-0.45-0.67-0.64-1.02c-0.4-0.71-0.78-1.42-1.17-2.14C291.48,420.28,291.42,420.19,291.34,420.07z M272.95,421.25
			c0.39-0.1,0.76-0.15,1.1-0.27c1.46-0.49,2.96-0.82,4.46-1.14c0.29-0.06,0.57-0.19,0.83-0.34c0.2-0.12,0.17-0.32-0.04-0.41
			c-0.17-0.08-0.36-0.12-0.55-0.14c-1.47-0.12-2.92-0.05-4.35,0.33c-0.76,0.2-1.32,0.69-1.76,1.33c-0.08,0.11-0.12,0.32-0.07,0.43
			C272.63,421.15,272.83,421.18,272.95,421.25z M300.61,418.89c-0.24,0.01-0.64,0.01-1.04,0.06c-0.21,0.03-0.42,0.13-0.62,0.22
			c-0.13,0.06-0.13,0.17-0.01,0.24c0.23,0.13,0.46,0.3,0.72,0.37c1.01,0.25,2.04,0.46,3.05,0.71c0.75,0.19,1.48,0.44,2.22,0.64
			c0.2,0.05,0.42,0.06,0.62,0.03c0.27-0.04,0.32-0.21,0.2-0.45c-0.21-0.43-0.54-0.76-0.93-1.01c-0.28-0.18-0.57-0.35-0.88-0.43
			C302.91,418.99,301.85,418.91,300.61,418.89z M301.27,421.1c-0.02,0.03-0.04,0.06-0.05,0.09c0.07,0.05,0.15,0.08,0.2,0.14
			c0.26,0.29,0.58,0.55,0.76,0.89c0.25,0.45,0.53,0.77,1.04,0.96c0.51,0.19,0.97,0.54,1.46,0.78c0.33,0.16,0.69,0.28,1.05,0.34
			c0.51,0.09,0.9-0.42,0.81-0.9c-0.02-0.12-0.08-0.23-0.13-0.35c-0.24-0.6-0.71-0.97-1.29-1.12c-1.08-0.28-2.17-0.5-3.26-0.74
			C301.67,421.14,301.47,421.13,301.27,421.1z M277.1,421.12c-0.01,0-0.04-0.02-0.07-0.02c-0.15,0.02-0.31,0.04-0.46,0.07
			c-1.24,0.21-2.48,0.41-3.65,0.89c-0.61,0.25-1.02,0.71-1.09,1.42c-0.05,0.52,0.29,0.85,0.8,0.82c0.41-0.02,0.77-0.21,1.12-0.39
			c0.62-0.32,1.24-0.66,1.87-0.96c0.15-0.07,0.24-0.15,0.31-0.3c0.14-0.27,0.29-0.54,0.48-0.79
			C276.62,421.6,276.87,421.37,277.1,421.12z M304.1,427.03c0.16-0.06,0.47-0.12,0.71-0.28c0.58-0.38,0.65-0.85,0.36-1.27
			c-0.18-0.26-0.46-0.48-0.75-0.63c-0.64-0.34-1.3-0.63-1.96-0.93c-0.26-0.12-0.53-0.24-0.8-0.31c-0.29-0.07-0.4,0.08-0.28,0.36
			c0.09,0.2,0.22,0.37,0.33,0.56c0.33,0.56,0.67,1.13,0.99,1.7C302.99,426.71,303.39,427,304.1,427.03z M274.38,427.03
			c0.41-0.03,0.79-0.15,1.05-0.52c0.1-0.14,0.2-0.27,0.29-0.41c0.39-0.65,0.77-1.3,1.15-1.95c0.09-0.15,0.21-0.34,0.08-0.49
			c-0.13-0.15-0.33-0.05-0.49,0.02c-0.48,0.22-0.96,0.44-1.43,0.67c-0.5,0.24-1.01,0.46-1.47,0.76c-0.55,0.36-0.69,1.05-0.16,1.54
			C273.66,426.89,274,427,274.38,427.03z M302.09,409.91c1.01,0.06,1.95,0.02,2.87-0.24c0.59-0.17,1.13-0.41,1.52-0.92
			c0.2-0.26,0.24-0.66,0.03-0.86c-0.2-0.19-0.44-0.3-0.72-0.3c-0.63-0.02-1.18,0.21-1.7,0.55c-0.38,0.25-0.75,0.52-1.09,0.82
			C302.69,409.25,302.42,409.57,302.09,409.91z M276.18,409.92c0.01-0.02,0.02-0.04,0.03-0.06c-0.25-0.25-0.49-0.5-0.74-0.75
			c-0.45-0.46-0.96-0.85-1.53-1.14c-0.53-0.28-1.09-0.46-1.7-0.31c-0.37,0.09-0.59,0.42-0.5,0.79c0.07,0.29,0.23,0.52,0.47,0.69
			c0.47,0.34,1,0.53,1.56,0.65C274.57,409.94,275.38,409.97,276.18,409.92z M290.87,419.61c-0.06,0.31-0.17,0.64-0.17,0.96
			c-0.01,0.58,0.01,1.16,0.07,1.73c0.1,0.92,0.27,1.82,0.71,2.65c0.23,0.44,0.44,0.88,0.68,1.31c0.4,0.72,0.9,1.36,1.47,1.95
			c0.34,0.35,0.69,0.68,1.03,1.02c0.02-0.01,0.04-0.03,0.06-0.04c-0.2-0.35-0.41-0.7-0.61-1.05c-0.49-0.83-0.98-1.66-1.45-2.5
			c-0.22-0.39-0.44-0.79-0.62-1.2c-0.27-0.63-0.51-1.27-0.73-1.92c-0.12-0.35-0.18-0.73-0.23-1.1
			C290.99,420.82,290.93,420.22,290.87,419.61z M287.52,419.65c-0.08,0.59-0.14,1.2-0.26,1.8c-0.16,0.85-0.33,1.69-0.73,2.47
			c-0.24,0.47-0.45,0.95-0.69,1.42c-0.21,0.4-0.45,0.79-0.68,1.19c-0.38,0.66-0.75,1.32-1.13,1.98c-0.13,0.23-0.26,0.45-0.4,0.68
			c0.13-0.05,0.24-0.12,0.33-0.2c0.46-0.47,0.93-0.92,1.35-1.42c0.56-0.68,1.04-1.42,1.41-2.22c0.35-0.75,0.63-1.54,0.78-2.36
			C287.71,421.86,287.72,420.74,287.52,419.65z M311.75,403.38c0.72,0.01,1.33-0.55,1.32-1.27c0-0.74-0.7-1.26-1.35-1.26
			c-0.69,0.01-1.33,0.65-1.32,1.27C310.4,402.75,311.03,403.42,311.75,403.38z M266.61,403.39c0.76,0,1.32-0.53,1.32-1.25
			c0-0.73-0.58-1.27-1.35-1.27c-0.72,0-1.32,0.67-1.3,1.29C265.29,402.74,265.83,403.41,266.61,403.39z M280.47,417.99
			c0-0.01,0-0.03,0.01-0.04c-0.22-0.03-0.45-0.05-0.67-0.08c-1.62-0.2-3.24-0.27-4.84,0.07c-0.38,0.08-0.74,0.25-1.1,0.39
			c-0.06,0.02-0.08,0.12-0.12,0.18c0.06,0.04,0.11,0.09,0.17,0.11c0.09,0.03,0.18,0.04,0.27,0.04c0.29-0.02,0.59-0.01,0.88-0.07
			c1.48-0.31,2.97-0.45,4.47-0.53C279.85,418.03,280.16,418.01,280.47,417.99z M297.92,417.99c0.1,0.01,0.19,0.02,0.29,0.02
			c0.56,0.03,1.12,0.06,1.68,0.1c1.18,0.09,2.36,0.25,3.52,0.48c0.33,0.06,0.67,0.03,1.01,0.02c0.07,0,0.15-0.08,0.22-0.13
			c-0.06-0.07-0.11-0.14-0.17-0.2c-0.02-0.02-0.05-0.02-0.08-0.03c-0.58-0.29-1.2-0.38-1.83-0.46
			C301.01,417.6,299.46,417.73,297.92,417.99z M274.26,403.58c-0.48-0.01-0.99,0.39-0.97,0.93c0.02,0.5,0.46,0.92,0.98,0.91
			c0.48-0.01,0.98-0.37,0.97-0.94C275.23,403.95,274.74,403.57,274.26,403.58z M304.1,403.58c-0.55,0-0.95,0.39-0.95,0.92
			c0,0.51,0.42,0.92,0.94,0.92c0.53,0,0.95-0.41,0.95-0.93C305.04,403.97,304.64,403.59,304.1,403.58z M298.74,406.79
			c-0.04,0.44,0.44,0.77,0.81,0.77c0.41,0,0.81-0.36,0.81-0.75c0.01-0.4-0.39-0.77-0.81-0.78
			C299.22,406.02,298.69,406.35,298.74,406.79z M278.02,406.8c0,0.44,0.34,0.76,0.8,0.76c0.46,0,0.8-0.34,0.79-0.78
			c-0.01-0.43-0.37-0.76-0.81-0.75C278.35,406.04,278.02,406.37,278.02,406.8z M311.63,406.2c0-0.39-0.31-0.68-0.71-0.68
			c-0.39,0-0.69,0.29-0.7,0.67c0,0.39,0.31,0.68,0.71,0.68C311.32,406.87,311.63,406.57,311.63,406.2z M267.43,406.87
			c0.36,0,0.73-0.35,0.72-0.68c0-0.33-0.36-0.66-0.72-0.66c-0.35,0-0.72,0.34-0.72,0.67C266.71,406.52,267.08,406.87,267.43,406.87z
			 M307.67,402.13c-0.28-0.05-0.66,0.31-0.66,0.58c0,0.28,0.36,0.6,0.63,0.59c0.37-0.01,0.65-0.25,0.63-0.59
			C308.26,402.4,308.11,402.13,307.67,402.13z M270.69,402.14c-0.32,0-0.62,0.27-0.62,0.57c0,0.32,0.29,0.6,0.63,0.6
			c0.36,0,0.61-0.24,0.62-0.58C271.32,402.38,271.07,402.14,270.69,402.14z M269.85,407.25c-0.24,0-0.48,0.21-0.48,0.43
			c0,0.22,0.24,0.43,0.48,0.43c0.24,0,0.46-0.2,0.47-0.42C270.33,407.47,270.1,407.25,269.85,407.25z M308.5,408.12
			c0.26,0,0.46-0.18,0.46-0.43c0-0.23-0.21-0.44-0.45-0.44c-0.25,0-0.46,0.19-0.46,0.43C308.04,407.92,308.24,408.11,308.5,408.12z
			 M268.87,409.93c0.04-0.23-0.26-0.42-0.43-0.43c-0.22-0.02-0.47,0.21-0.47,0.42c0,0.22,0.21,0.41,0.44,0.42
			C268.63,410.34,268.86,410.14,268.87,409.93z M309.94,410.33c0.25,0,0.43-0.18,0.42-0.43c0-0.23-0.19-0.41-0.42-0.41
			c-0.25,0-0.44,0.18-0.44,0.42C309.5,410.16,309.68,410.34,309.94,410.33z M296.6,409.46c0.22,0,0.42-0.19,0.42-0.38
			c0-0.18-0.23-0.39-0.42-0.39c-0.21-0.01-0.39,0.18-0.39,0.39C296.21,409.3,296.38,409.46,296.6,409.46z M281.77,409.46
			c0.25,0,0.4-0.15,0.4-0.39c0-0.22-0.18-0.39-0.41-0.39c-0.21,0-0.39,0.19-0.4,0.39C281.36,409.29,281.54,409.46,281.77,409.46z
			 M303.54,406.37c-0.2,0-0.36,0.16-0.36,0.36c0,0.2,0.17,0.36,0.36,0.36c0.22,0,0.39-0.15,0.4-0.35
			C303.95,406.53,303.78,406.37,303.54,406.37z M275.19,406.74c0.01-0.21-0.17-0.37-0.4-0.37c-0.18,0-0.35,0.16-0.35,0.35
			c-0.01,0.2,0.16,0.37,0.35,0.37C275.02,407.09,275.19,406.95,275.19,406.74z M270.96,405.14c-0.2,0.01-0.33,0.14-0.32,0.32
			c0,0.18,0.14,0.3,0.34,0.31c0.17,0,0.31-0.16,0.3-0.34C271.26,405.27,271.12,405.14,270.96,405.14z M307.42,405.76
			c0.17-0.01,0.3-0.15,0.29-0.33c-0.01-0.17-0.15-0.31-0.32-0.3c-0.16,0.01-0.33,0.17-0.33,0.31
			C307.06,405.61,307.25,405.77,307.42,405.76z"/>
		<path class="st0" d="M432.41,462.65c0.27-0.13,0.51-0.23,0.75-0.36c0.64-0.34,1.28-0.67,1.91-1.02c0.93-0.52,1.85-1.07,2.85-1.45
			c0.92-0.35,1.86-0.47,2.85-0.21c1.66,0.45,3.37,0.52,5.08,0.48c0.53-0.01,1.07-0.04,1.6,0c0.33,0.02,0.67,0.11,0.97,0.26
			c0.62,0.32,0.66,1.05,0.12,1.57c-0.5,0.49-1.13,0.72-1.8,0.85c-1.89,0.34-3.8,0.4-5.71,0.36c-1.63-0.03-3.26-0.11-4.89-0.2
			c-1.21-0.06-2.43-0.17-3.64-0.26C432.48,462.67,432.46,462.66,432.41,462.65z"/>
		<path class="st0" d="M426.87,462.67c-0.36,0.03-0.72,0.06-1.09,0.09c-2.69,0.2-5.37,0.4-8.07,0.38c-1.33-0.01-2.66-0.09-3.98-0.2
			c-0.67-0.05-1.34-0.14-1.97-0.41c-0.44-0.18-0.82-0.45-1.14-0.81c-0.32-0.37-0.27-0.92,0.11-1.22c0.52-0.42,1.14-0.46,1.76-0.44
			c1.29,0.04,2.59,0.09,3.88-0.07c0.8-0.1,1.59-0.26,2.38-0.43c0.62-0.13,1.24-0.14,1.86,0.01c0.76,0.18,1.48,0.49,2.16,0.88
			c0.69,0.39,1.38,0.79,2.08,1.16c0.6,0.32,1.22,0.61,1.83,0.91c0.07,0.03,0.14,0.07,0.2,0.1
			C426.88,462.64,426.87,462.65,426.87,462.67z"/>
		<path class="st0" d="M440.43,475.46c0.01,0.69-0.25,0.94-0.65,0.79c-0.19-0.07-0.38-0.18-0.54-0.31
			c-0.44-0.36-0.76-0.83-1.06-1.31c-0.46-0.73-0.94-1.45-1.42-2.17c-0.42-0.62-0.85-1.24-1.29-1.86c-0.47-0.66-0.95-1.31-1.44-1.95
			c-0.44-0.57-0.9-1.12-1.34-1.68c-0.19-0.24-0.36-0.5-0.52-0.76c-0.03-0.05-0.02-0.13-0.02-0.2c0.07,0.01,0.15-0.01,0.21,0.02
			c0.5,0.27,1,0.54,1.49,0.82c0.74,0.42,1.41,0.92,2.04,1.48c0.51,0.45,0.99,0.94,1.41,1.48c0.27,0.35,0.57,0.69,0.82,1.06
			c0.19,0.27,0.34,0.57,0.51,0.86c0.24,0.42,0.47,0.83,0.7,1.25c0.28,0.52,0.58,1.04,0.83,1.59
			C440.31,474.89,440.38,475.27,440.43,475.46z"/>
		<path class="st0" d="M418.87,475.62c0.13-0.42,0.23-0.85,0.41-1.24c0.26-0.58,0.57-1.15,0.88-1.71c0.22-0.4,0.43-0.81,0.69-1.18
			c0.44-0.65,0.89-1.3,1.39-1.91c0.4-0.49,0.86-0.93,1.33-1.35c0.7-0.61,1.45-1.15,2.27-1.6c0.35-0.19,0.69-0.38,1.03-0.57
			c0.06-0.03,0.13-0.07,0.19-0.08c0.05-0.01,0.12-0.01,0.15,0.02c0.03,0.03,0.03,0.11,0,0.15c-0.09,0.17-0.19,0.35-0.3,0.5
			c-0.36,0.47-0.73,0.93-1.09,1.4c-0.46,0.6-0.93,1.2-1.38,1.81c-0.47,0.64-0.93,1.29-1.38,1.94c-0.44,0.64-0.86,1.3-1.31,1.94
			c-0.45,0.65-0.89,1.3-1.37,1.92c-0.18,0.23-0.46,0.4-0.72,0.54c-0.41,0.21-0.71,0.01-0.73-0.45c0-0.04,0-0.07,0-0.11
			C418.91,475.64,418.89,475.63,418.87,475.62z"/>
		<path class="st0" d="M426.87,464.69c0.04,0.3-0.13,0.46-0.36,0.58c-0.38,0.19-0.77,0.36-1.13,0.6c-0.67,0.44-1.32,0.9-1.96,1.38
			c-0.35,0.26-0.65,0.58-0.99,0.86c-0.08,0.06-0.17,0.12-0.27,0.14c-0.91,0.16-1.81,0.4-2.68,0.72c-0.49,0.18-0.96,0.43-1.45,0.63
			c-0.12,0.05-0.29,0.09-0.39,0.04c-0.08-0.05-0.12-0.24-0.11-0.36c0.07-0.51,0.22-1.01,0.56-1.4c0.38-0.45,0.9-0.71,1.44-0.92
			c0.29-0.11,0.59-0.21,0.89-0.33c0.06-0.02,0.12-0.08,0.15-0.13c0.36-0.62,0.85-1.13,1.52-1.38c0.48-0.18,1-0.29,1.51-0.33
			c1.06-0.07,2.12-0.08,3.18-0.11C426.82,464.68,426.85,464.69,426.87,464.69z"/>
		<path class="st0" d="M432.39,464.7c0.11-0.01,0.17-0.01,0.22-0.01c1,0.03,2.01,0.05,3.01,0.09c0.64,0.03,1.26,0.13,1.83,0.44
			c0.42,0.23,0.82,0.52,1.05,0.95c0.2,0.37,0.52,0.53,0.88,0.65c0.52,0.17,1.02,0.39,1.48,0.7c0.07,0.05,0.13,0.11,0.19,0.17
			c0.41,0.42,0.67,0.92,0.76,1.5c0.02,0.14-0.02,0.36-0.11,0.44c-0.08,0.07-0.29,0.01-0.42-0.04c-0.64-0.25-1.27-0.52-1.91-0.77
			c-0.72-0.28-1.46-0.45-2.22-0.58c-0.06-0.01-0.12-0.04-0.17-0.08c-0.29-0.25-0.57-0.53-0.87-0.77c-0.71-0.57-1.43-1.13-2.23-1.57
			c-0.43-0.24-0.86-0.46-1.28-0.73C432.5,465.04,432.47,464.85,432.39,464.7z"/>
		<path class="st0" d="M432.05,462.27c-0.04-0.19-0.08-0.36-0.09-0.53c0-0.06,0.06-0.14,0.12-0.17c0.5-0.34,1-0.67,1.5-1.02
			c0.77-0.54,1.55-1.07,2.29-1.65c0.72-0.56,1.42-1.15,2.09-1.77c0.49-0.46,0.92-0.99,1.39-1.47c0.38-0.39,0.82-0.69,1.32-0.88
			c0.5-0.19,1.02-0.33,1.56-0.28c0.23,0.02,0.45,0.07,0.58,0.29c0.05,0.09,0.09,0.24,0.05,0.32c-0.19,0.37-0.43,0.71-0.77,0.96
			c-0.25,0.19-0.47,0.43-0.72,0.62c-0.84,0.63-1.66,1.28-2.53,1.85c-0.9,0.59-1.84,1.11-2.78,1.63c-0.88,0.49-1.77,0.94-2.66,1.41
			c-0.4,0.21-0.79,0.42-1.19,0.63C432.16,462.23,432.11,462.25,432.05,462.27z"/>
		<path class="st0" d="M427.3,462.29c-0.44-0.24-0.85-0.45-1.25-0.67c-0.65-0.35-1.31-0.68-1.95-1.04c-0.81-0.44-1.61-0.88-2.4-1.36
			c-0.79-0.48-1.58-0.96-2.34-1.49c-0.6-0.42-1.15-0.9-1.72-1.36c-0.3-0.24-0.57-0.52-0.85-0.78c-0.02-0.01-0.03-0.03-0.04-0.05
			c-0.15-0.22-0.34-0.45-0.21-0.74c0.13-0.3,0.42-0.31,0.69-0.32c0.81-0.03,1.54,0.24,2.22,0.68c0.53,0.34,0.86,0.88,1.3,1.31
			c0.54,0.53,1.1,1.04,1.67,1.55c0.36,0.32,0.74,0.63,1.13,0.92c0.7,0.52,1.42,1.04,2.14,1.54c0.52,0.36,1.05,0.7,1.58,1.04
			c0.14,0.09,0.2,0.18,0.14,0.35C427.35,462,427.34,462.13,427.3,462.29z"/>
		<path class="st0" d="M439.66,458.68c0.14-0.12,0.23-0.2,0.33-0.26c0.56-0.38,1.13-0.76,1.69-1.15c0.29-0.2,0.58-0.23,0.93-0.18
			c0.73,0.1,1.48,0.17,2.22,0.19c0.81,0.03,1.63-0.02,2.45-0.01c0.33,0,0.65,0.05,0.98,0.12c0.27,0.05,0.47,0.22,0.5,0.53
			c0.02,0.27-0.18,0.53-0.45,0.69c-0.54,0.33-1.14,0.34-1.73,0.41c-1.41,0.17-2.82,0.12-4.23-0.03c-0.77-0.08-1.54-0.14-2.31-0.21
			C439.93,458.76,439.82,458.72,439.66,458.68z"/>
		<path class="st0" d="M419.66,458.69c-0.16,0.03-0.3,0.08-0.45,0.09c-1.81,0.14-3.61,0.42-5.42,0.31c-0.8-0.05-1.61-0.09-2.39-0.33
			c-0.33-0.1-0.56-0.32-0.76-0.57c-0.11-0.13-0.07-0.38,0.05-0.53c0.25-0.31,0.6-0.4,0.96-0.4c0.77,0,1.53,0.02,2.3,0.02
			c0.98-0.01,1.96,0.03,2.91-0.22c0.32-0.08,0.58,0.05,0.83,0.21c0.65,0.44,1.29,0.89,1.94,1.34
			C419.63,458.62,419.63,458.64,419.66,458.69z"/>
		<path class="st0" d="M421.33,469.32c-0.03,0.3-0.21,0.48-0.35,0.66c-0.17,0.22-0.37,0.42-0.53,0.65c-0.27,0.4-0.54,0.81-0.78,1.23
			c-0.24,0.42-0.48,0.84-0.68,1.28c-0.25,0.54-0.43,1.12-0.7,1.65c-0.21,0.43-0.48,0.83-0.94,1.07c-0.67,0.36-1.44-0.13-1.49-0.8
			c-0.05-0.52,0.03-1.01,0.35-1.45c0.41-0.56,0.8-1.14,1.21-1.7c0.29-0.39,0.59-0.77,0.89-1.15c0.39-0.49,0.94-0.75,1.5-0.99
			c0.39-0.17,0.79-0.29,1.19-0.42C421.08,469.33,421.19,469.34,421.33,469.32z"/>
		<path class="st0" d="M442.49,476.03c-0.2-0.07-0.41-0.12-0.58-0.22c-0.4-0.24-0.68-0.6-0.85-1.04c-0.25-0.61-0.48-1.22-0.76-1.81
			c-0.24-0.5-0.52-0.99-0.8-1.47c-0.17-0.3-0.38-0.58-0.58-0.85c-0.27-0.37-0.55-0.73-0.82-1.09c-0.03-0.05-0.05-0.11-0.07-0.16
			c0.06-0.02,0.13-0.08,0.18-0.07c0.22,0.05,0.44,0.1,0.65,0.18c0.73,0.25,1.41,0.59,2.02,1.07c0.08,0.06,0.15,0.13,0.21,0.21
			c0.31,0.42,0.62,0.84,0.93,1.26c0.29,0.38,0.59,0.75,0.87,1.14c0.42,0.58,0.72,1.2,0.6,1.96
			C443.38,475.64,442.99,475.99,442.49,476.03z"/>
		<path class="st0" d="M427.5,466.55c0.1,0.44,0.09,0.85,0,1.24c-0.09,0.41-0.17,0.84-0.35,1.22c-0.42,0.94-0.87,1.87-1.36,2.77
			c-0.41,0.75-0.89,1.45-1.36,2.16c-0.39,0.58-0.78,1.17-1.22,1.71c-0.37,0.46-1.07,0.65-1.67,0.39c-0.29-0.13-0.41-0.5-0.23-0.8
			c0.15-0.26,0.35-0.49,0.55-0.71c0.57-0.67,1.16-1.32,1.72-2c0.47-0.57,0.93-1.15,1.35-1.75c0.49-0.7,0.94-1.43,1.4-2.16
			c0.23-0.37,0.43-0.76,0.65-1.14C427.14,467.18,427.31,466.88,427.5,466.55z"/>
		<path class="st0" d="M431.83,466.53c0.08,0.13,0.13,0.21,0.18,0.3c0.39,0.71,0.77,1.43,1.17,2.14c0.2,0.35,0.41,0.69,0.64,1.02
			c0.51,0.71,1.03,1.41,1.55,2.1c0.29,0.38,0.59,0.75,0.9,1.11c0.45,0.52,0.93,1.02,1.38,1.54c0.16,0.19,0.31,0.4,0.42,0.63
			c0.13,0.27-0.06,0.58-0.41,0.72c-0.47,0.19-1.2,0-1.52-0.41c-0.23-0.3-0.45-0.61-0.66-0.92c-0.5-0.74-0.99-1.49-1.47-2.24
			c-0.24-0.38-0.47-0.77-0.69-1.16c-0.31-0.57-0.63-1.14-0.9-1.74c-0.21-0.47-0.32-0.98-0.51-1.46c-0.17-0.44-0.2-0.89-0.16-1.35
			c0-0.04,0.01-0.09,0.02-0.13C431.79,466.64,431.8,466.61,431.83,466.53z"/>
		<path class="st0" d="M413.44,467.71c-0.12-0.06-0.31-0.1-0.37-0.21c-0.05-0.11-0.01-0.32,0.07-0.43c0.44-0.64,1-1.12,1.76-1.33
			c1.43-0.38,2.88-0.45,4.35-0.33c0.19,0.02,0.38,0.06,0.55,0.14c0.21,0.09,0.24,0.3,0.04,0.41c-0.26,0.15-0.54,0.28-0.83,0.34
			c-1.5,0.31-3,0.64-4.46,1.14C414.19,467.55,413.83,467.61,413.44,467.71z"/>
		<path class="st0" d="M441.11,465.35c1.23,0.02,2.3,0.09,3.33,0.38c0.31,0.09,0.6,0.26,0.88,0.43c0.39,0.25,0.72,0.58,0.93,1.01
			c0.12,0.24,0.07,0.41-0.2,0.45c-0.2,0.03-0.42,0.02-0.62-0.03c-0.74-0.2-1.47-0.45-2.22-0.64c-1.01-0.26-2.04-0.46-3.05-0.71
			c-0.25-0.06-0.49-0.23-0.72-0.37c-0.12-0.07-0.12-0.18,0.01-0.24c0.2-0.09,0.41-0.19,0.62-0.22
			C440.47,465.37,440.87,465.37,441.11,465.35z"/>
		<path class="st0" d="M441.77,467.56c0.2,0.03,0.39,0.04,0.59,0.09c1.09,0.24,2.18,0.47,3.26,0.74c0.59,0.15,1.06,0.51,1.29,1.12
			c0.05,0.12,0.1,0.23,0.13,0.35c0.1,0.48-0.3,0.99-0.81,0.9c-0.36-0.06-0.72-0.19-1.05-0.34c-0.5-0.24-0.95-0.59-1.46-0.78
			c-0.51-0.19-0.79-0.51-1.04-0.96c-0.18-0.34-0.5-0.6-0.76-0.89c-0.05-0.06-0.14-0.09-0.2-0.14
			C441.73,467.62,441.75,467.59,441.77,467.56z"/>
		<path class="st0" d="M417.59,467.58c-0.23,0.25-0.48,0.48-0.68,0.75c-0.19,0.24-0.34,0.51-0.48,0.79
			c-0.07,0.15-0.16,0.23-0.31,0.3c-0.63,0.31-1.24,0.64-1.87,0.96c-0.36,0.18-0.71,0.37-1.12,0.39c-0.52,0.03-0.85-0.3-0.8-0.82
			c0.06-0.71,0.48-1.17,1.09-1.42c1.17-0.48,2.41-0.69,3.65-0.89c0.15-0.03,0.3-0.05,0.46-0.07
			C417.55,467.56,417.58,467.58,417.59,467.58z"/>
		<path class="st0" d="M444.59,473.49c-0.71-0.04-1.11-0.32-1.39-0.81c-0.32-0.57-0.66-1.13-0.99-1.7
			c-0.11-0.19-0.25-0.36-0.33-0.56c-0.12-0.28-0.01-0.43,0.28-0.36c0.28,0.07,0.54,0.19,0.8,0.31c0.66,0.3,1.32,0.59,1.96,0.93
			c0.28,0.15,0.57,0.37,0.75,0.63c0.29,0.43,0.22,0.9-0.36,1.27C445.06,473.37,444.75,473.43,444.59,473.49z"/>
		<path class="st0" d="M414.87,473.49c-0.38-0.03-0.72-0.14-0.99-0.39c-0.53-0.49-0.4-1.18,0.16-1.54c0.46-0.3,0.98-0.52,1.47-0.76
			c0.47-0.23,0.95-0.45,1.43-0.67c0.16-0.07,0.36-0.17,0.49-0.02c0.13,0.15,0.01,0.34-0.08,0.49c-0.38,0.65-0.76,1.31-1.15,1.95
			c-0.09,0.14-0.19,0.28-0.29,0.41C415.66,473.34,415.28,473.46,414.87,473.49z"/>
		<path class="st0" d="M442.58,456.38c0.33-0.35,0.6-0.67,0.92-0.94c0.34-0.3,0.71-0.58,1.09-0.82c0.51-0.33,1.07-0.57,1.7-0.55
			c0.28,0.01,0.52,0.11,0.72,0.3c0.2,0.2,0.17,0.6-0.03,0.86c-0.39,0.51-0.93,0.75-1.52,0.92
			C444.53,456.4,443.59,456.43,442.58,456.38z"/>
		<path class="st0" d="M416.68,456.38c-0.81,0.05-1.61,0.02-2.41-0.15c-0.56-0.12-1.09-0.31-1.56-0.65
			c-0.24-0.17-0.41-0.4-0.47-0.69c-0.08-0.37,0.14-0.7,0.5-0.79c0.61-0.15,1.17,0.03,1.7,0.31c0.57,0.3,1.08,0.68,1.53,1.14
			c0.24,0.25,0.49,0.5,0.74,0.75C416.7,456.34,416.69,456.36,416.68,456.38z"/>
		<path class="st0" d="M431.36,466.07c0.06,0.6,0.11,1.21,0.2,1.81c0.05,0.37,0.12,0.75,0.23,1.1c0.22,0.65,0.47,1.29,0.73,1.92
			c0.18,0.41,0.39,0.81,0.62,1.2c0.48,0.84,0.97,1.67,1.45,2.5c0.2,0.35,0.41,0.7,0.61,1.05c-0.02,0.01-0.04,0.03-0.06,0.04
			c-0.34-0.34-0.69-0.68-1.03-1.02c-0.57-0.59-1.08-1.23-1.47-1.95c-0.24-0.43-0.45-0.88-0.68-1.31c-0.44-0.83-0.6-1.73-0.71-2.65
			c-0.06-0.57-0.08-1.16-0.07-1.73C431.2,466.71,431.3,466.39,431.36,466.07z"/>
		<path class="st0" d="M428.01,466.11c0.2,1.09,0.19,2.21-0.01,3.33c-0.15,0.83-0.44,1.61-0.78,2.36c-0.37,0.8-0.85,1.55-1.41,2.22
			c-0.42,0.5-0.89,0.95-1.35,1.42c-0.09,0.09-0.2,0.15-0.33,0.2c0.13-0.23,0.27-0.45,0.4-0.68c0.38-0.66,0.75-1.32,1.13-1.98
			c0.23-0.4,0.47-0.79,0.68-1.19c0.24-0.47,0.45-0.95,0.69-1.42c0.4-0.78,0.57-1.62,0.73-2.47
			C427.86,467.31,427.93,466.7,428.01,466.11z"/>
		<path class="st0" d="M452.24,449.85c-0.73,0.03-1.35-0.63-1.35-1.25c0-0.63,0.63-1.26,1.32-1.27c0.65-0.01,1.35,0.52,1.35,1.26
			C453.57,449.3,452.96,449.85,452.24,449.85z"/>
		<path class="st0" d="M407.1,449.85c-0.77,0.03-1.31-0.65-1.33-1.23c-0.02-0.62,0.58-1.29,1.3-1.29c0.77,0,1.35,0.55,1.35,1.27
			C408.42,449.31,407.86,449.84,407.1,449.85z"/>
		<path class="st0" d="M420.97,464.45c-0.31,0.02-0.63,0.05-0.94,0.06c-1.5,0.08-3,0.22-4.47,0.53c-0.29,0.06-0.59,0.06-0.88,0.07
			c-0.09,0-0.18-0.01-0.27-0.04c-0.06-0.02-0.11-0.07-0.17-0.11c0.04-0.06,0.07-0.16,0.12-0.18c0.36-0.14,0.72-0.31,1.1-0.39
			c1.61-0.34,3.23-0.28,4.84-0.07c0.22,0.03,0.45,0.05,0.67,0.08C420.97,464.42,420.97,464.43,420.97,464.45z"/>
		<path class="st0" d="M438.42,464.45c1.54-0.26,3.09-0.39,4.64-0.19c0.63,0.08,1.25,0.17,1.83,0.46c0.02,0.01,0.06,0.01,0.08,0.03
			c0.06,0.06,0.12,0.13,0.17,0.2c-0.07,0.04-0.15,0.13-0.22,0.13c-0.34,0.01-0.68,0.04-1.01-0.02c-1.17-0.22-2.34-0.39-3.52-0.48
			c-0.56-0.04-1.12-0.07-1.68-0.1C438.61,464.47,438.51,464.46,438.42,464.45z"/>
		<path class="st0" d="M414.75,450.04c0.48-0.01,0.97,0.37,0.98,0.9c0.01,0.57-0.49,0.93-0.97,0.94c-0.52,0.01-0.96-0.41-0.98-0.91
			C413.76,450.43,414.27,450.04,414.75,450.04z"/>
		<path class="st0" d="M444.6,450.04c0.54,0,0.94,0.39,0.94,0.91c0,0.52-0.42,0.93-0.95,0.93c-0.52,0-0.94-0.41-0.94-0.92
			C443.64,450.43,444.05,450.04,444.6,450.04z"/>
		<path class="st0" d="M439.23,453.25c-0.05-0.44,0.48-0.77,0.81-0.76c0.42,0.01,0.82,0.39,0.81,0.78c-0.01,0.39-0.4,0.75-0.81,0.75
			C439.67,454.02,439.19,453.69,439.23,453.25z"/>
		<path class="st0" d="M418.51,453.26c0-0.43,0.33-0.76,0.78-0.77c0.44-0.01,0.8,0.32,0.81,0.75c0.01,0.44-0.33,0.78-0.79,0.78
			C418.86,454.02,418.52,453.7,418.51,453.26z"/>
		<path class="st0" d="M452.12,452.67c0,0.37-0.31,0.67-0.7,0.67c-0.4,0-0.71-0.29-0.71-0.68c0-0.38,0.3-0.67,0.7-0.67
			C451.81,451.99,452.12,452.28,452.12,452.67z"/>
		<path class="st0" d="M407.92,453.34c-0.35,0-0.72-0.35-0.72-0.68c0-0.33,0.37-0.67,0.72-0.67c0.36,0,0.72,0.33,0.72,0.66
			C408.65,452.99,408.28,453.34,407.92,453.34z"/>
		<path class="st0" d="M448.16,448.6c0.44-0.01,0.59,0.27,0.6,0.58c0.02,0.35-0.26,0.59-0.63,0.59c-0.27,0.01-0.63-0.31-0.63-0.59
			C447.5,448.91,447.89,448.55,448.16,448.6z"/>
		<path class="st0" d="M411.18,448.6c0.38,0,0.63,0.24,0.63,0.59c0,0.34-0.26,0.58-0.62,0.58c-0.34,0-0.63-0.28-0.63-0.6
			C410.57,448.87,410.86,448.59,411.18,448.6z"/>
		<path class="st0" d="M410.35,453.71c0.25,0,0.47,0.22,0.47,0.45c-0.01,0.22-0.23,0.42-0.47,0.42c-0.24,0-0.48-0.21-0.48-0.43
			C409.86,453.93,410.11,453.71,410.35,453.71z"/>
		<path class="st0" d="M448.99,454.58c-0.26,0-0.46-0.2-0.45-0.44c0.01-0.24,0.22-0.43,0.46-0.43c0.24,0,0.45,0.21,0.45,0.44
			C449.45,454.4,449.25,454.58,448.99,454.58z"/>
		<path class="st0" d="M409.36,456.39c-0.01,0.21-0.23,0.41-0.46,0.4c-0.24-0.01-0.44-0.2-0.44-0.42c0-0.21,0.25-0.43,0.47-0.42
			C409.1,455.97,409.4,456.16,409.36,456.39z"/>
		<path class="st0" d="M450.43,456.79c-0.25,0-0.44-0.17-0.44-0.42c0-0.24,0.19-0.42,0.44-0.42c0.24,0,0.42,0.18,0.42,0.41
			C450.86,456.62,450.68,456.79,450.43,456.79z"/>
		<path class="st0" d="M437.09,455.92c-0.22,0-0.39-0.16-0.39-0.38c0-0.21,0.18-0.4,0.39-0.39c0.19,0,0.42,0.22,0.42,0.39
			C437.51,455.73,437.31,455.92,437.09,455.92z"/>
		<path class="st0" d="M422.26,455.92c-0.23,0-0.41-0.17-0.41-0.39c0-0.2,0.19-0.39,0.4-0.39c0.23-0.01,0.41,0.16,0.41,0.39
			C422.66,455.77,422.51,455.92,422.26,455.92z"/>
		<path class="st0" d="M444.04,452.83c0.23,0,0.4,0.16,0.4,0.37c0,0.2-0.17,0.35-0.4,0.35c-0.2,0-0.36-0.16-0.36-0.36
			C443.68,452.99,443.84,452.83,444.04,452.83z"/>
		<path class="st0" d="M415.68,453.2c0,0.2-0.17,0.35-0.4,0.35c-0.19,0-0.36-0.17-0.35-0.37c0.01-0.19,0.17-0.35,0.35-0.35
			C415.52,452.83,415.69,452.99,415.68,453.2z"/>
		<path class="st0" d="M411.45,451.6c0.16-0.01,0.3,0.13,0.31,0.28c0.01,0.18-0.13,0.34-0.3,0.34c-0.19,0-0.33-0.13-0.34-0.31
			C411.13,451.74,411.26,451.61,411.45,451.6z"/>
		<path class="st0" d="M447.91,452.23c-0.17,0.01-0.36-0.15-0.36-0.31c0-0.14,0.17-0.3,0.33-0.31c0.17-0.01,0.31,0.13,0.32,0.3
			C448.2,452.07,448.07,452.22,447.91,452.23z"/>
	</g>
</g>
</svg>
